<svg width="1180" height="620" viewBox="0 0 1180 620" xmlns="http://www.w3.org/2000/svg">
  <defs>
    <linearGradient id="bg" x1="0" y1="0" x2="1" y2="1"><stop offset="0" stop-color="#07111b"/><stop offset="1" stop-color="#0d1b2a"/></linearGradient>
  </defs>
  <rect width="1180" height="620" rx="24" fill="url(#bg)"/>
  <text x="50" y="58" fill="#ffffff" font-family="Arial" font-size="30" font-weight="700">Databricks on AWS IAM Review</text>
  <text x="50" y="90" fill="#adc2d4" font-family="Arial" font-size="16">A clean view of the access path and cloud control boundaries.</text>

  <rect x="70" y="150" width="270" height="120" rx="18" fill="#0a1520" stroke="#1e3a52"/>
  <text x="95" y="190" fill="#7dd3fc" font-family="Arial" font-size="18" font-weight="700">Databricks Workspace</text>
  <text x="95" y="222" fill="#d6e4ef" font-family="Arial" font-size="14">Jobs, notebooks, and clusters</text>
  <text x="95" y="245" fill="#d6e4ef" font-family="Arial" font-size="14">need controlled AWS access</text>

  <rect x="455" y="140" width="300" height="140" rx="18" fill="#0a1520" stroke="#2dd4bf"/>
  <text x="482" y="180" fill="#99f6e4" font-family="Arial" font-size="18" font-weight="700">Cross-Account IAM Role</text>
  <text x="482" y="212" fill="#d6e4ef" font-family="Arial" font-size="14">Main access boundary</text>
  <text x="482" y="235" fill="#d6e4ef" font-family="Arial" font-size="14">Trust policy and guardrails</text>
  <text x="482" y="258" fill="#d6e4ef" font-family="Arial" font-size="14">reviewed before use</text>

  <rect x="850" y="150" width="270" height="120" rx="18" fill="#0a1520" stroke="#1e3a52"/>
  <text x="875" y="190" fill="#f9a8d4" font-family="Arial" font-size="18" font-weight="700">Security Review</text>
  <text x="875" y="222" fill="#d6e4ef" font-family="Arial" font-size="14">Trust scope</text>
  <text x="875" y="245" fill="#d6e4ef" font-family="Arial" font-size="14">Least privilege and logging</text>

  <line x1="340" y1="210" x2="455" y2="210" stroke="#38bdf8" stroke-width="4"/>
  <line x1="755" y1="210" x2="850" y2="210" stroke="#38bdf8" stroke-width="4"/>

  <rect x="110" y="380" width="250" height="120" rx="18" fill="#0a1520" stroke="#1e3a52"/>
  <text x="135" y="420" fill="#fcd34d" font-family="Arial" font-size="18" font-weight="700">S3 Data Access</text>
  <text x="135" y="452" fill="#d6e4ef" font-family="Arial" font-size="14">Approved buckets and prefixes</text>

  <rect x="465" y="380" width="250" height="120" rx="18" fill="#0a1520" stroke="#1e3a52"/>
  <text x="490" y="420" fill="#93c5fd" font-family="Arial" font-size="18" font-weight="700">CloudWatch Logs</text>
  <text x="490" y="452" fill="#d6e4ef" font-family="Arial" font-size="14">Audit visibility and retention</text>

  <rect x="820" y="380" width="250" height="120" rx="18" fill="#0a1520" stroke="#1e3a52"/>
  <text x="845" y="420" fill="#c4b5fd" font-family="Arial" font-size="18" font-weight="700">Policy Validation</text>
  <text x="845" y="452" fill="#d6e4ef" font-family="Arial" font-size="14">Automated review workflow</text>

  <line x1="605" y1="280" x2="235" y2="380" stroke="#2dd4bf" stroke-width="4"/>
  <line x1="605" y1="280" x2="590" y2="380" stroke="#2dd4bf" stroke-width="4"/>
  <line x1="605" y1="280" x2="945" y2="380" stroke="#2dd4bf" stroke-width="4"/>
</svg>
